<svg width="1500" height="1500" viewBox="0 0 1500 1500" fill="none" xmlns="http://www.w3.org/2000/svg">
<rect x="546.5" y="546.5" width="408" height="408" stroke="#FF4A22" stroke-width="5"/>
<path d="M712.488 600.967C712.488 617.731 708.338 633.519 700.037 648.33C691.736 663.141 679.285 676.081 662.684 687.148C646.082 698.216 625.33 707.005 600.428 713.516C575.688 719.863 546.717 723.037 513.514 723.037C480.311 723.037 451.176 719.863 426.111 713.516C401.209 707.005 380.457 698.216 363.855 687.148C347.254 676.081 334.803 663.141 326.502 648.33C318.201 633.519 314.051 617.731 314.051 600.967V378.555H404.383V568.496C404.383 579.727 405.766 590.387 408.533 600.479C411.463 610.407 416.834 619.115 424.646 626.602C432.622 634.089 443.689 640.029 457.85 644.424C472.173 648.818 490.727 651.016 513.514 651.016C536.137 651.016 554.529 648.818 568.689 644.424C582.85 640.029 593.836 634.089 601.648 626.602C609.624 619.115 614.995 610.407 617.762 600.479C620.529 590.387 621.912 579.727 621.912 568.496V378.555H712.488V600.967Z" fill="#FF4A22"/>
<path d="M1185.51 493.057C1185.51 509.821 1183.06 525.283 1178.18 539.443C1173.3 553.441 1165.4 565.566 1154.5 575.82C1143.76 585.911 1129.76 593.805 1112.51 599.502C1095.26 605.199 1053.23 608.047 1028.49 608.047H878.104V714.004H787.527V378.555H1028.49C1053.23 378.555 1095.26 381.403 1112.51 387.1C1129.76 392.633 1143.76 400.527 1154.5 410.781C1165.4 420.872 1173.3 432.917 1178.18 446.914C1183.06 460.911 1185.51 476.292 1185.51 493.057ZM1094.5 494.521C1094.5 486.709 1093.36 480.036 1091.08 474.502C1088.97 468.805 1085.39 464.167 1080.34 460.586C1075.29 457.005 1068.7 454.401 1060.56 452.773C1052.43 450.983 1020.84 450.088 1008.96 450.088H878.104V536.514H1008.96C1020.84 536.514 1052.43 535.863 1060.56 534.561C1068.7 533.096 1075.29 530.736 1080.34 527.48C1085.39 524.062 1088.97 519.668 1091.08 514.297C1093.36 508.926 1094.5 502.334 1094.5 494.521Z" fill="#FF4A22"/>
<path d="M315 1095V1034.94C364.041 1014.92 406.586 997.017 442.634 981.229C478.866 965.441 508.785 951.117 532.39 938.259C556.179 925.401 573.837 913.682 585.366 903.102C596.894 892.36 602.658 882.024 602.658 872.096C602.658 869.329 602.292 866.236 601.56 862.818C601.011 859.238 599.547 855.657 597.168 852.076C594.972 848.332 591.679 844.67 587.287 841.089C582.895 837.509 576.857 834.416 569.171 831.812C561.486 829.045 551.97 826.848 540.625 825.22C529.28 823.43 515.555 822.534 499.452 822.534C484.63 822.534 469.168 823.43 453.065 825.22C436.962 826.848 421.042 829.208 405.305 832.3C389.568 835.393 374.38 839.136 359.741 843.531C345.102 847.925 331.652 852.89 319.392 858.424V778.588C344.644 770.776 372.641 764.265 403.383 759.057C434.309 753.686 466.88 751 501.099 751C533.122 751 561.76 753.523 587.012 758.568C612.265 763.614 633.583 770.938 650.967 780.542C668.534 789.982 681.892 801.538 691.041 815.21C700.374 828.719 705.04 844.019 705.04 861.109C705.04 870.55 703.851 879.42 701.472 887.721C699.276 895.859 695.25 903.835 689.395 911.647C683.539 919.46 675.579 927.354 665.514 935.329C655.633 943.142 643.007 951.443 627.636 960.232C612.448 969.021 594.24 978.543 573.014 988.797C551.787 998.888 527.084 1010.12 498.903 1022.49H713V1095H315Z" fill="#FF4A22"/>
<path d="M1186.48 980.959C1186.48 997.723 1182.33 1013.51 1174.03 1028.32C1165.73 1043.13 1153.28 1056.07 1136.68 1067.14C1120.08 1078.21 1099.33 1087 1074.42 1093.51C1049.68 1099.86 1020.71 1103.03 987.51 1103.03C954.307 1103.03 925.173 1099.86 900.107 1093.51C875.205 1087 854.453 1078.21 837.852 1067.14C821.25 1056.07 808.799 1043.13 800.498 1028.32C792.197 1013.51 788.047 997.723 788.047 980.959V758.547H878.379V948.488C878.379 959.719 879.762 970.38 882.529 980.471C885.459 990.399 890.83 999.107 898.643 1006.59C906.618 1014.08 917.686 1020.02 931.846 1024.42C946.169 1028.81 964.723 1031.01 987.51 1031.01C1010.13 1031.01 1028.53 1028.81 1042.69 1024.42C1056.85 1020.02 1067.83 1014.08 1075.64 1006.59C1083.62 999.107 1088.99 990.399 1091.76 980.471C1094.52 970.38 1095.91 959.719 1095.91 948.488V758.547H1186.48V887V980.959Z" fill="#FF4A22"/>
</svg>
